<?xml version="1.0" encoding="utf-8"?>
<!-- Generator: Adobe Illustrator 22.0.1, SVG Export Plug-In . SVG Version: 6.00 Build 0)  -->
<svg version="1.1" id="Layer_1" xmlns="http://www.w3.org/2000/svg" xmlns:xlink="http://www.w3.org/1999/xlink" x="0px" y="0px"
	 viewBox="0 0 88.9 73" style="enable-background:new 0 0 88.9 73;" xml:space="preserve">
<style type="text/css">
	.st0{fill:#FFFFFF;}
</style>
<g>
	<polygon class="st0" points="4.4,20.5 8.2,20.5 8.2,4.5 11.8,4.5 11.8,0.8 0.9,0.8 0.9,4.5 4.4,4.5 	"/>
	<polygon class="st0" points="18.1,11.9 24.7,11.9 24.7,20.5 28.4,20.5 28.4,0.8 24.7,0.8 24.7,8.2 18.1,8.2 18.1,0.8 14.3,0.8 
		14.3,20.5 18.1,20.5 	"/>
	<polygon class="st0" points="43.7,16.8 36.7,16.8 36.7,11.6 43.7,11.6 43.7,8 36.7,8 36.7,4.5 43.7,4.5 43.7,0.8 33,0.8 33,20.5 
		43.7,20.5 	"/>
	<polygon class="st0" points="21.2,26.9 17.5,26.9 12.9,40.6 8.4,26.9 4.7,26.9 1.3,46.5 5,46.5 7.1,34.1 11.3,46.5 14.6,46.5 
		18.8,34.1 20.9,46.5 24.5,46.5 	"/>
	<path class="st0" d="M36.7,26.4c-1.8,0-3.6,0.5-5.1,1.4c-1.6,0.9-2.8,2.2-3.8,3.8c-0.9,1.6-1.4,3.3-1.4,5.2c0,2.8,1,5.2,2.9,7.3
		c2,2,4.4,3.1,7.4,3.1c2.8,0,5.2-1,7.2-3c2-2,3-4.4,3-7.3c0-2.9-1-5.4-3-7.4S39.5,26.4,36.7,26.4z M41.3,41.5
		c-1.2,1.3-2.8,1.9-4.5,1.9c-1.6,0-3-0.5-4.2-1.5c-1.6-1.3-2.3-3-2.3-5.2c0-2,0.6-3.6,1.9-4.8c1.2-1.3,2.8-1.9,4.6-1.9
		c1.8,0,3.3,0.6,4.6,1.9c1.3,1.3,1.9,2.9,1.9,4.8C43.2,38.6,42.6,40.2,41.3,41.5z"/>
	<polygon class="st0" points="57.8,40.8 52.8,26.9 49,26.9 55.9,46.5 59.5,46.5 66.6,26.9 62.8,26.9 	"/>
	<rect x="69.3" y="26.9" class="st0" width="3.7" height="19.7"/>
	<polygon class="st0" points="88,30.5 88,26.9 77.3,26.9 77.3,46.5 88,46.5 88,42.9 81,42.9 81,37.7 88,37.7 88,34.1 81,34.1 
		81,30.5 	"/>
	<path class="st0" d="M13.6,54c-1.4-0.7-3.5-1.1-6.4-1.1H2.8v19.7h4.5c2.5,0,4.3-0.2,5.4-0.5c1-0.3,2-0.9,2.9-1.7
		c0.9-0.8,1.6-1.9,2.1-3.2c0.5-1.3,0.8-2.7,0.8-4.2c0-2.1-0.5-4-1.3-5.6C16.2,55.9,15,54.7,13.6,54z M13.9,66.4
		c-0.5,0.9-1.1,1.6-1.9,2c-0.8,0.4-2,0.6-3.7,0.6H6.6V56.6h1.3c2.3,0,4,0.5,5.1,1.6c1.2,1.2,1.8,2.8,1.8,4.9
		C14.6,64.3,14.4,65.5,13.9,66.4z"/>
	<path class="st0" d="M30.9,61.8c0.7-0.5,1.2-1.1,1.5-1.7c0.3-0.6,0.5-1.3,0.5-2c0-1.2-0.3-2.1-1-3s-1.6-1.4-2.8-1.7
		c-0.8-0.2-2.1-0.3-3.9-0.3H22v19.7h5.5c1.6,0,2.8-0.2,3.7-0.7s1.6-1.1,2.2-2c0.6-0.9,0.9-1.9,0.9-3c0-1.1-0.3-2.1-0.8-3
		C32.9,63,32,62.3,30.9,61.8z M25.7,56.5h1c0.9,0,1.5,0.2,1.9,0.5c0.4,0.4,0.6,0.8,0.6,1.5c0,0.7-0.2,1.2-0.7,1.6
		c-0.4,0.4-1.1,0.6-2,0.6h-0.8V56.5z M29.8,68.5c-0.5,0.4-1.6,0.6-3.1,0.6h-0.9v-5h0.8c1.5,0,2.5,0.2,3.2,0.7c0.6,0.5,1,1.2,1,2
		C30.6,67.5,30.4,68.1,29.8,68.5z"/>
</g>
</svg>
